<svg data-v-423bf9ae="" xmlns="http://www.w3.org/2000/svg" viewBox="0 0 459 90" class="iconLeft"><!----><defs data-v-423bf9ae=""><linearGradient data-v-423bf9ae="" gradientTransform="rotate(25)" id="e0e3e30b-630c-476c-911b-4c32b8758bbc" x1="0%" y1="0%" x2="100%" y2="0%"><stop data-v-423bf9ae="" offset="0%" style="stop-color: rgb(81, 164, 251); stop-opacity: 1;"></stop><stop data-v-423bf9ae="" offset="100%" style="stop-color: rgb(81, 164, 251); stop-opacity: 1;"></stop></linearGradient></defs><!----><g data-v-423bf9ae="" id="506fa02c-0ce6-4b95-86d9-aec23925a94f" fill="#ffffff" transform="matrix(5.591798782348633,0,0,5.591798782348633,101.30237579345703,-5.577820301055908)"><path d="M8.47 8.95C8.47 7.29 8.46 6.23 7.48 5.25C6.78 4.55 5.64 4.16 4.51 4.16C3.37 4.16 2.23 4.55 1.53 5.25C0.57 6.20 0.55 7.38 0.55 8.96L0.55 9.49C0.55 11.07 0.57 12.25 1.53 13.20C2.23 13.90 3.37 14.29 4.51 14.29L8.71 14.29L8.71 12.57C8.23 12.71 7.76 12.78 7.28 12.81C8.13 12.15 8.47 10.95 8.47 9.52ZM6.52 9.44C6.52 11.12 6.48 12.56 4.51 12.56C2.48 12.56 2.51 11.00 2.49 9.48L2.49 8.96C2.49 7.29 2.55 5.89 4.51 5.89C6.44 5.89 6.52 7.31 6.52 8.76ZM14.14 11.06L14.14 9.37L9.83 9.37L9.83 11.06ZM22.61 5.98L22.61 4.24L15.33 4.24L15.33 5.98L17.99 5.98L17.99 14.21L19.94 14.21L19.94 5.98ZM28.22 6.24C27.96 6.05 27.72 6.08 27.41 6.12L25.48 6.92L25.06 6.22L23.70 6.22L23.70 14.21L25.52 14.21L25.52 8.55C26.45 8.01 27.24 7.85 27.72 8.04ZM34.94 14.21L34.94 6.16L33.12 6.27L31.21 6.27C28.66 6.27 28.55 8.32 28.55 10.28C28.55 12.56 28.98 14.29 31.22 14.29L33.17 13.24L33.73 14.21ZM33.12 11.66L31.74 12.38C30.65 12.38 30.37 11.75 30.37 10.28C30.37 8.81 30.65 7.91 31.74 7.91L33.12 7.91ZM41.01 11.28C40.98 12.22 40.89 12.77 39.55 12.77C38.28 12.77 38.15 11.69 38.15 10.54L38.15 9.81C38.15 8.61 38.32 7.74 39.55 7.74C40.70 7.74 40.98 8.19 40.98 8.96L42.63 8.96C42.63 7.20 41.61 6.10 39.55 6.10C38.47 6.10 37.60 6.52 37.16 7.00C36.50 7.69 36.33 8.86 36.33 10.18C36.33 11.51 36.50 12.82 37.16 13.51C37.60 13.99 38.47 14.41 39.55 14.41C40.63 14.41 41.65 13.99 42.10 13.51C42.62 12.96 42.59 12.29 42.66 11.27ZM51.06 14.21L47.96 10.12L50.58 6.54L48.52 6.54L45.98 10.33L45.98 3.68L44.16 3.68L44.16 14.21L45.98 14.21L45.98 12.52L46.77 11.38L48.87 14.21ZM58.00 10.64C58.02 10.25 58.03 9.84 58.03 9.49C58.03 7.63 57.30 6.12 54.99 6.12C52.68 6.12 51.53 7.27 51.53 9.93C51.53 13.44 52.58 14.39 55.05 14.39C56.76 14.39 58.02 13.58 58.02 11.49L56.38 11.49C56.38 11.86 56.08 12.74 55.06 12.74C53.59 12.74 53.34 11.97 53.34 10.64ZM53.38 9.39C53.38 8.11 54.07 7.63 54.94 7.63C55.90 7.63 56.38 8.13 56.38 9.39ZM63.92 6.24C63.66 6.05 63.42 6.08 63.11 6.12L61.18 6.92L60.76 6.22L59.40 6.22L59.40 14.21L61.22 14.21L61.22 8.55C62.15 8.01 62.94 7.85 63.42 8.04Z"></path></g><!----><g data-v-423bf9ae="" id="91e1ab95-7b1c-423a-bdb4-9c019fdccc4f" transform="matrix(24.12221908569336,0,0,24.12221908569336,0.8200706839561462,9.39771780394949e-7)" stroke="none" fill="#ffffff"><path d="M.849 2.672c-.099.09-.197.391-.376.384v-.483l.045-.01c.299-.057.116-.64.08-.885-.016-.103-.063-.15-.125-.171v-.332a.424.424 0 0 0 .02.024c.162.212.376-.056.492-.214v1.699l-.008-.005c-.061-.038-.069-.053-.128-.007zM.279.016h.123v3.699H.279V.016zM3.095 0h.124v3.699h-.124V0zM2.23 0h.124v3.699H2.23V0zM1.056.031h.123v3.7h-.123v-3.7zm-.848 1.46C.101 1.486.011 1.452 0 1.283c-.007-.121.081-.249.208-.257v.465zM.985.735C.853.609.584.503.79.265a.253.253 0 0 1 .195-.09v.56zM1.25.663c.114.101.395.049.507.057.159.01.295.053.402.072v.585a.597.597 0 0 1-.063.027.085.085 0 1 1-.146.059l.002-.019a.66.66 0 0 1-.106.009.029.029 0 0 0-.025.014.028.028 0 0 0-.002.028.293.293 0 0 0 .34.164v1.789a.438.438 0 0 1-.047-.225c.005-.265-.453-.277-.862-.418v-1.17a.292.292 0 0 0 .372-.153c.004-.01.004-.02-.002-.029a.029.029 0 0 0-.025-.013.689.689 0 0 1-.138-.016l.001.013a.085.085 0 1 1-.146-.059l-.062-.031V.663zM2.424.609a.368.368 0 0 0 .005-.035c.059-.52.82.04.365.233-.425.18-.121.231.029.624.129.336.028.604.202.651v.313c-.19-.24-.418.167-.585.332l-.016.016V.609zm.865 1.46c.324.012.228.457 0 .48v-.48zm-.865 1.01c.104.108.244.206.085.388a.276.276 0 0 1-.085.067v-.455zM2.02 2.2a.294.294 0 0 0-.567-.089.27.27 0 0 0-.019.092.029.029 0 0 0 .012.026.03.03 0 0 0 .029.003.664.664 0 0 1 .286-.046.686.686 0 0 1 .218.044.03.03 0 0 0 .028-.004.03.03 0 0 0 .013-.026z"></path></g><!----></svg>