<svg data-v-423bf9ae="" xmlns="http://www.w3.org/2000/svg" viewBox="0 0 56.25192185442753 60" class="icon"><!----><!----><!----><!----><g data-v-423bf9ae="" id="ad50cf15-f479-42a7-b5b6-d234c8ea51f5" transform="matrix(16.081480026245117,0,0,16.081480026245117,0.006266727112233639,-5.595384209300391e-7)" stroke="none" fill="black"><path d="M.849 2.672c-.099.09-.197.391-.376.384v-.483l.045-.01c.299-.057.116-.64.08-.885-.016-.103-.063-.15-.125-.171v-.332a.424.424 0 0 0 .02.024c.162.212.376-.056.492-.214v1.699l-.008-.005c-.061-.038-.069-.053-.128-.007zM.279.016h.123v3.699H.279V.016zM3.095 0h.124v3.699h-.124V0zM2.23 0h.124v3.699H2.23V0zM1.056.031h.123v3.7h-.123v-3.7zm-.848 1.46C.101 1.486.011 1.452 0 1.283c-.007-.121.081-.249.208-.257v.465zM.985.735C.853.609.584.503.79.265a.253.253 0 0 1 .195-.09v.56zM1.25.663c.114.101.395.049.507.057.159.01.295.053.402.072v.585a.597.597 0 0 1-.063.027.085.085 0 1 1-.146.059l.002-.019a.66.66 0 0 1-.106.009.029.029 0 0 0-.025.014.028.028 0 0 0-.002.028.293.293 0 0 0 .34.164v1.789a.438.438 0 0 1-.047-.225c.005-.265-.453-.277-.862-.418v-1.17a.292.292 0 0 0 .372-.153c.004-.01.004-.02-.002-.029a.029.029 0 0 0-.025-.013.689.689 0 0 1-.138-.016l.001.013a.085.085 0 1 1-.146-.059l-.062-.031V.663zM2.424.609a.368.368 0 0 0 .005-.035c.059-.52.82.04.365.233-.425.18-.121.231.029.624.129.336.028.604.202.651v.313c-.19-.24-.418.167-.585.332l-.016.016V.609zm.865 1.46c.324.012.228.457 0 .48v-.48zm-.865 1.01c.104.108.244.206.085.388a.276.276 0 0 1-.085.067v-.455zM2.02 2.2a.294.294 0 0 0-.567-.089.27.27 0 0 0-.019.092.029.029 0 0 0 .012.026.03.03 0 0 0 .029.003.664.664 0 0 1 .286-.046.686.686 0 0 1 .218.044.03.03 0 0 0 .028-.004.03.03 0 0 0 .013-.026z"></path></g><!----></svg>