<?xml version="1.0" encoding="UTF-8" standalone="no"?>
<svg
   xmlns:dc="http://purl.org/dc/elements/1.1/"
   xmlns:cc="http://creativecommons.org/ns#"
   xmlns:rdf="http://www.w3.org/1999/02/22-rdf-syntax-ns#"
   xmlns:svg="http://www.w3.org/2000/svg"
   xmlns="http://www.w3.org/2000/svg"
   xmlns:sodipodi="http://sodipodi.sourceforge.net/DTD/sodipodi-0.dtd"
   xmlns:inkscape="http://www.inkscape.org/namespaces/inkscape"
   data-v-423bf9ae=""
   viewBox="0 0 397 90"
   class="iconLeft"
   version="1.1"
   id="svg15"
   sodipodi:docname="logo4.svg"
   inkscape:version="0.92.3 (2405546, 2018-03-11)">
  <metadata
     id="metadata19">
    <rdf:RDF>
      <cc:Work
         rdf:about="">
        <dc:format>image/svg+xml</dc:format>
        <dc:type
           rdf:resource="http://purl.org/dc/dcmitype/StillImage" />
        <dc:title></dc:title>
      </cc:Work>
    </rdf:RDF>
  </metadata>
  <sodipodi:namedview
     pagecolor="#ffffff"
     bordercolor="#666666"
     borderopacity="1"
     objecttolerance="10"
     gridtolerance="10"
     guidetolerance="10"
     inkscape:pageopacity="0"
     inkscape:pageshadow="2"
     inkscape:window-width="992"
     inkscape:window-height="1965"
     id="namedview17"
     showgrid="false"
     inkscape:zoom="1.8438287"
     inkscape:cx="200.12705"
     inkscape:cy="45"
     inkscape:window-x="2002"
     inkscape:window-y="4"
     inkscape:window-maximized="0"
     inkscape:current-layer="svg15" />
  <!---->
  <defs
     data-v-423bf9ae=""
     id="defs7">
    <linearGradient
       data-v-423bf9ae=""
       gradientTransform="rotate(25)"
       id="c7e23622-bd0e-4c04-a387-881412fc16f2"
       x1="0%"
       y1="0%"
       x2="100%"
       y2="0%">
      <stop
         data-v-423bf9ae=""
         offset="0%"
         style="stop-color: rgb(57, 94, 202); stop-opacity: 1;"
         id="stop2" />
      <stop
         data-v-423bf9ae=""
         offset="100%"
         style="stop-color: rgb(132, 139, 216); stop-opacity: 1;"
         id="stop4" />
    </linearGradient>
  </defs>
  <!---->
  <g
     data-v-423bf9ae=""
     id="162478ef-2268-4195-a0a8-e5aa18d312bc"
     fill="#ffffff"
     transform="matrix(4.297994613647461,0,0,4.297994613647461,100.38075256347656,3.43839168548584)"
     style="fill:#333333">
    <path
       d="M12.12 16.65L5.77 13.78L5.77 13.78Q4.76 13.78 3.88 13.43L3.88 13.43L3.88 13.43Q2.99 13.07 2.34 12.42L2.34 12.42L2.34 12.42Q1.68 11.77 1.31 10.86L1.31 10.86L1.31 10.86Q0.93 9.95 0.93 8.85L0.93 8.85L0.93 8.85Q0.93 8.07 1.12 7.38L1.12 7.38L1.12 7.38Q1.31 6.68 1.66 6.08L1.66 6.08L1.66 6.08Q2.00 5.48 2.49 5.00L2.49 5.00L2.49 5.00Q2.97 4.53 3.56 4.19L3.56 4.19L3.56 4.19Q4.14 3.86 4.81 3.67L4.81 3.67L4.81 3.67Q5.48 3.49 6.21 3.49L6.21 3.49L6.21 3.49Q7.18 3.49 8.07 3.82L8.07 3.82L8.07 3.82Q8.96 4.16 9.63 4.79L9.63 4.79L9.63 4.79Q10.29 5.42 10.69 6.33L10.69 6.33L10.69 6.33Q11.09 7.23 11.09 8.38L11.09 8.38L11.09 8.38Q11.09 9.30 10.83 10.11L10.83 10.11L10.83 10.11Q10.57 10.92 10.11 11.56L10.11 11.56L10.11 11.56Q9.66 12.21 9.04 12.69L9.04 12.69L9.04 12.69Q8.42 13.17 7.70 13.43L7.70 13.43L13.08 15.38L12.12 16.65ZM6.06 12.58L6.06 12.58L6.06 12.58Q6.79 12.58 7.40 12.27L7.40 12.27L7.40 12.27Q8.00 11.96 8.43 11.43L8.43 11.43L8.43 11.43Q8.85 10.90 9.08 10.19L9.08 10.19L9.08 10.19Q9.32 9.47 9.32 8.67L9.32 8.67L9.32 8.67Q9.32 7.82 9.06 7.09L9.06 7.09L9.06 7.09Q8.80 6.36 8.35 5.83L8.35 5.83L8.35 5.83Q7.90 5.30 7.29 5.00L7.29 5.00L7.29 5.00Q6.67 4.70 5.95 4.70L5.95 4.70L5.95 4.70Q5.20 4.70 4.60 5.01L4.60 5.01L4.60 5.01Q4.01 5.33 3.58 5.86L3.58 5.86L3.58 5.86Q3.16 6.40 2.93 7.11L2.93 7.11L2.93 7.11Q2.70 7.82 2.70 8.62L2.70 8.62L2.70 8.62Q2.70 9.47 2.95 10.19L2.95 10.19L2.95 10.19Q3.21 10.92 3.65 11.45L3.65 11.45L3.65 11.45Q4.10 11.98 4.72 12.28L4.72 12.28L4.72 12.28Q5.33 12.58 6.06 12.58ZM12.96 9.04L17.66 9.04L17.66 10.17L12.96 10.17L12.96 9.04ZM22.89 4.83L22.89 13.64L21.18 13.64L21.18 4.83L17.94 4.83L18.16 3.63L26.24 3.63L26.01 4.83L22.89 4.83ZM26.63 13.64L26.63 6.40L27.97 6.40L28.21 8.56L28.21 8.56Q28.30 8.38 28.40 8.19L28.40 8.19L28.40 8.19Q28.51 8.00 28.61 7.83L28.61 7.83L28.61 7.83Q28.71 7.66 28.80 7.51L28.80 7.51L28.80 7.51Q28.89 7.37 28.95 7.27L28.95 7.27L28.95 7.27Q29.09 7.06 29.27 6.87L29.27 6.87L29.27 6.87Q29.46 6.69 29.67 6.55L29.67 6.55L29.67 6.55Q29.88 6.42 30.13 6.34L30.13 6.34L30.13 6.34Q30.37 6.26 30.66 6.26L30.66 6.26L30.66 6.26Q30.86 6.26 31.06 6.31L31.06 6.31L31.06 6.31Q31.25 6.36 31.39 6.46L31.39 6.46L31.21 7.98L31.21 7.98Q31.09 7.95 30.93 7.94L30.93 7.94L30.93 7.94Q30.76 7.93 30.63 7.93L30.63 7.93L30.63 7.93Q30.19 7.93 29.85 8.06L29.85 8.06L29.85 8.06Q29.51 8.18 29.23 8.40L29.23 8.40L29.23 8.40Q28.96 8.63 28.73 8.93L28.73 8.93L28.73 8.93Q28.50 9.23 28.29 9.58L28.29 9.58L28.29 13.64L26.63 13.64ZM36.78 12.58L36.78 12.58L36.78 12.58Q36.61 12.73 36.36 12.94L36.36 12.94L36.36 12.94Q36.11 13.15 35.80 13.33L35.80 13.33L35.80 13.33Q35.50 13.52 35.14 13.65L35.14 13.65L35.14 13.65Q34.78 13.78 34.38 13.78L34.38 13.78L34.38 13.78Q33.98 13.78 33.64 13.63L33.64 13.63L33.64 13.63Q33.29 13.49 33.03 13.22L33.03 13.22L33.03 13.22Q32.78 12.96 32.63 12.60L32.63 12.60L32.63 12.60Q32.48 12.23 32.48 11.79L32.48 11.79L32.48 11.79Q32.48 11.32 32.67 10.88L32.67 10.88L32.67 10.88Q32.86 10.43 33.30 10.08L33.30 10.08L33.30 10.08Q33.74 9.73 34.47 9.52L34.47 9.52L34.47 9.52Q35.19 9.30 36.26 9.30L36.26 9.30L36.76 9.30L36.76 8.74L36.76 8.74Q36.76 8.44 36.65 8.20L36.65 8.20L36.65 8.20Q36.55 7.96 36.37 7.79L36.37 7.79L36.37 7.79Q36.18 7.62 35.93 7.53L35.93 7.53L35.93 7.53Q35.67 7.44 35.36 7.44L35.36 7.44L35.36 7.44Q35.11 7.44 34.83 7.50L34.83 7.50L34.83 7.50Q34.55 7.56 34.28 7.66L34.28 7.66L34.28 7.66Q34.00 7.77 33.74 7.91L33.74 7.91L33.74 7.91Q33.48 8.05 33.28 8.21L33.28 8.21L33.15 8.14L32.84 6.99L32.84 6.99Q33.67 6.56 34.38 6.41L34.38 6.41L34.38 6.41Q35.09 6.26 35.71 6.26L35.71 6.26L35.71 6.26Q36.35 6.26 36.86 6.39L36.86 6.39L36.86 6.39Q37.36 6.52 37.71 6.79L37.71 6.79L37.71 6.79Q38.06 7.06 38.24 7.48L38.24 7.48L38.24 7.48Q38.42 7.89 38.42 8.46L38.42 8.46L38.42 11.81L38.42 11.81Q38.42 11.91 38.44 12.03L38.44 12.03L38.44 12.03Q38.45 12.15 38.50 12.26L38.50 12.26L38.50 12.26Q38.55 12.37 38.65 12.45L38.65 12.45L38.65 12.45Q38.75 12.52 38.92 12.52L38.92 12.52L38.92 12.52Q39.01 12.52 39.15 12.50L39.15 12.50L39.15 12.50Q39.29 12.47 39.42 12.41L39.42 12.41L39.42 13.23L39.42 13.23Q39.05 13.48 38.69 13.63L38.69 13.63L38.69 13.63Q38.32 13.78 37.97 13.78L37.97 13.78L37.97 13.78Q37.70 13.78 37.50 13.68L37.50 13.68L37.50 13.68Q37.30 13.58 37.17 13.41L37.17 13.41L37.17 13.41Q37.03 13.24 36.94 13.03L36.94 13.03L36.94 13.03Q36.85 12.81 36.78 12.58ZM36.76 11.70L36.76 10.11L36.33 10.11L36.33 10.11Q35.62 10.11 35.18 10.21L35.18 10.21L35.18 10.21Q34.75 10.31 34.51 10.48L34.51 10.48L34.51 10.48Q34.27 10.66 34.19 10.89L34.19 10.89L34.19 10.89Q34.11 11.12 34.11 11.38L34.11 11.38L34.11 11.38Q34.11 11.66 34.19 11.87L34.19 11.87L34.19 11.87Q34.28 12.09 34.42 12.23L34.42 12.23L34.42 12.23Q34.56 12.37 34.75 12.45L34.75 12.45L34.75 12.45Q34.94 12.52 35.16 12.52L35.16 12.52L35.16 12.52Q35.32 12.52 35.50 12.49L35.50 12.49L35.50 12.49Q35.68 12.45 35.87 12.35L35.87 12.35L35.87 12.35Q36.07 12.26 36.29 12.10L36.29 12.10L36.29 12.10Q36.50 11.94 36.76 11.70L36.76 11.70ZM46.14 12.15L46.14 12.98L46.14 12.98Q45.65 13.37 45.06 13.58L45.06 13.58L45.06 13.58Q44.46 13.78 43.78 13.78L43.78 13.78L43.78 13.78Q43.01 13.78 42.40 13.52L42.40 13.52L42.40 13.52Q41.78 13.27 41.35 12.81L41.35 12.81L41.35 12.81Q40.92 12.36 40.69 11.73L40.69 11.73L40.69 11.73Q40.46 11.09 40.46 10.34L40.46 10.34L40.46 10.34Q40.46 9.44 40.77 8.69L40.77 8.69L40.77 8.69Q41.08 7.94 41.63 7.40L41.63 7.40L41.63 7.40Q42.17 6.86 42.91 6.56L42.91 6.56L42.91 6.56Q43.65 6.26 44.50 6.26L44.50 6.26L44.50 6.26Q44.68 6.26 44.89 6.28L44.89 6.28L44.89 6.28Q45.10 6.30 45.33 6.33L45.33 6.33L45.33 6.33Q45.55 6.36 45.76 6.42L45.76 6.42L45.76 6.42Q45.98 6.48 46.16 6.56L46.16 6.56L45.87 7.83L45.73 7.90L45.73 7.90Q45.60 7.81 45.44 7.73L45.44 7.73L45.44 7.73Q45.27 7.64 45.08 7.58L45.08 7.58L45.08 7.58Q44.88 7.52 44.68 7.48L44.68 7.48L44.68 7.48Q44.47 7.44 44.28 7.44L44.28 7.44L44.28 7.44Q43.84 7.44 43.46 7.62L43.46 7.62L43.46 7.62Q43.08 7.79 42.80 8.11L42.80 8.11L42.80 8.11Q42.51 8.44 42.35 8.92L42.35 8.92L42.35 8.92Q42.18 9.39 42.18 9.99L42.18 9.99L42.18 9.99Q42.18 10.62 42.36 11.09L42.36 11.09L42.36 11.09Q42.54 11.57 42.85 11.88L42.85 11.88L42.85 11.88Q43.17 12.20 43.60 12.36L43.60 12.36L43.60 12.36Q44.03 12.52 44.54 12.52L44.54 12.52L44.54 12.52Q44.85 12.52 45.25 12.45L45.25 12.45L45.25 12.45Q45.66 12.37 46.14 12.15L46.14 12.15ZM48.02 13.64L48.02 2.69L49.67 2.69L49.67 13.64L48.02 13.64ZM54.78 13.64L52.77 13.64L50.07 9.82L52.89 6.42L54.56 6.42L51.72 9.62L54.78 13.64ZM61.96 12.15L61.96 12.98L61.96 12.98Q61.66 13.19 61.31 13.34L61.31 13.34L61.31 13.34Q60.96 13.49 60.59 13.59L60.59 13.59L60.59 13.59Q60.22 13.69 59.86 13.74L59.86 13.74L59.86 13.74Q59.49 13.78 59.17 13.78L59.17 13.78L59.17 13.78Q58.41 13.78 57.75 13.55L57.75 13.55L57.75 13.55Q57.10 13.32 56.62 12.87L56.62 12.87L56.62 12.87Q56.14 12.41 55.86 11.75L55.86 11.75L55.86 11.75Q55.59 11.09 55.59 10.24L55.59 10.24L55.59 10.24Q55.59 9.33 55.90 8.59L55.90 8.59L55.90 8.59Q56.21 7.85 56.72 7.34L56.72 7.34L56.72 7.34Q57.24 6.82 57.92 6.54L57.92 6.54L57.92 6.54Q58.60 6.26 59.34 6.26L59.34 6.26L59.34 6.26Q59.95 6.26 60.48 6.46L60.48 6.46L60.48 6.46Q61.01 6.67 61.40 7.06L61.40 7.06L61.40 7.06Q61.78 7.46 62.00 8.05L62.00 8.05L62.00 8.05Q62.22 8.65 62.22 9.43L62.22 9.43L62.22 9.43Q62.22 9.63 62.20 9.84L62.20 9.84L62.20 9.84Q62.19 10.06 62.15 10.26L62.15 10.26L57.31 10.26L57.31 10.26Q57.31 10.81 57.50 11.24L57.50 11.24L57.50 11.24Q57.70 11.66 58.05 11.95L58.05 11.95L58.05 11.95Q58.41 12.23 58.91 12.38L58.91 12.38L58.91 12.38Q59.40 12.52 60.01 12.52L60.01 12.52L60.01 12.52Q60.18 12.52 60.41 12.51L60.41 12.51L60.41 12.51Q60.63 12.50 60.89 12.46L60.89 12.46L60.89 12.46Q61.15 12.41 61.43 12.34L61.43 12.34L61.43 12.34Q61.70 12.27 61.96 12.15L61.96 12.15ZM57.31 9.45L60.68 9.45L60.68 9.45Q60.68 8.96 60.56 8.58L60.56 8.58L60.56 8.58Q60.43 8.20 60.21 7.95L60.21 7.95L60.21 7.95Q59.99 7.70 59.70 7.57L59.70 7.57L59.70 7.57Q59.41 7.44 59.08 7.44L59.08 7.44L59.08 7.44Q58.70 7.44 58.38 7.59L58.38 7.59L58.38 7.59Q58.06 7.75 57.82 8.02L57.82 8.02L57.82 8.02Q57.58 8.29 57.44 8.65L57.44 8.65L57.44 8.65Q57.31 9.02 57.31 9.45L57.31 9.45ZM64.11 13.64L64.11 6.40L65.45 6.40L65.69 8.56L65.69 8.56Q65.78 8.38 65.88 8.19L65.88 8.19L65.88 8.19Q65.99 8.00 66.09 7.83L66.09 7.83L66.09 7.83Q66.19 7.66 66.28 7.51L66.28 7.51L66.28 7.51Q66.37 7.37 66.43 7.27L66.43 7.27L66.43 7.27Q66.58 7.06 66.76 6.87L66.76 6.87L66.76 6.87Q66.94 6.69 67.15 6.55L67.15 6.55L67.15 6.55Q67.36 6.42 67.61 6.34L67.61 6.34L67.61 6.34Q67.85 6.26 68.14 6.26L68.14 6.26L68.14 6.26Q68.34 6.26 68.54 6.31L68.54 6.31L68.54 6.31Q68.74 6.36 68.87 6.46L68.87 6.46L68.69 7.98L68.69 7.98Q68.57 7.95 68.41 7.94L68.41 7.94L68.41 7.94Q68.24 7.93 68.11 7.93L68.11 7.93L68.11 7.93Q67.68 7.93 67.33 8.06L67.33 8.06L67.33 8.06Q66.99 8.18 66.72 8.40L66.72 8.40L66.72 8.40Q66.44 8.63 66.21 8.93L66.21 8.93L66.21 8.93Q65.98 9.23 65.77 9.58L65.77 9.58L65.77 13.64L64.11 13.64Z"
       id="path9"
       style="fill:#333333" />
  </g>
  <!---->
  <g
     data-v-423bf9ae=""
     id="c314d736-941c-42a5-be7c-70a388598b42"
     transform="matrix(24.12221908569336,0,0,24.12221908569336,0.8200706839561462,9.39771780394949e-7)"
     stroke="none"
     fill="#ffffff"
     style="fill:#ff2a2a">
    <path
       d="M.849 2.672c-.099.09-.197.391-.376.384v-.483l.045-.01c.299-.057.116-.64.08-.885-.016-.103-.063-.15-.125-.171v-.332a.424.424 0 0 0 .02.024c.162.212.376-.056.492-.214v1.699l-.008-.005c-.061-.038-.069-.053-.128-.007zM.279.016h.123v3.699H.279V.016zM3.095 0h.124v3.699h-.124V0zM2.23 0h.124v3.699H2.23V0zM1.056.031h.123v3.7h-.123v-3.7zm-.848 1.46C.101 1.486.011 1.452 0 1.283c-.007-.121.081-.249.208-.257v.465zM.985.735C.853.609.584.503.79.265a.253.253 0 0 1 .195-.09v.56zM1.25.663c.114.101.395.049.507.057.159.01.295.053.402.072v.585a.597.597 0 0 1-.063.027.085.085 0 1 1-.146.059l.002-.019a.66.66 0 0 1-.106.009.029.029 0 0 0-.025.014.028.028 0 0 0-.002.028.293.293 0 0 0 .34.164v1.789a.438.438 0 0 1-.047-.225c.005-.265-.453-.277-.862-.418v-1.17a.292.292 0 0 0 .372-.153c.004-.01.004-.02-.002-.029a.029.029 0 0 0-.025-.013.689.689 0 0 1-.138-.016l.001.013a.085.085 0 1 1-.146-.059l-.062-.031V.663zM2.424.609a.368.368 0 0 0 .005-.035c.059-.52.82.04.365.233-.425.18-.121.231.029.624.129.336.028.604.202.651v.313c-.19-.24-.418.167-.585.332l-.016.016V.609zm.865 1.46c.324.012.228.457 0 .48v-.48zm-.865 1.01c.104.108.244.206.085.388a.276.276 0 0 1-.085.067v-.455zM2.02 2.2a.294.294 0 0 0-.567-.089.27.27 0 0 0-.019.092.029.029 0 0 0 .012.026.03.03 0 0 0 .029.003.664.664 0 0 1 .286-.046.686.686 0 0 1 .218.044.03.03 0 0 0 .028-.004.03.03 0 0 0 .013-.026z"
       id="path12"
       style="fill:#ff2a2a" />
  </g>
  <!---->
</svg>
