<?xml version="1.0" encoding="UTF-8"?>
<svg width="257px" height="37px" viewBox="0 0 257 37" version="1.1" xmlns="http://www.w3.org/2000/svg" xmlns:xlink="http://www.w3.org/1999/xlink">
    <!-- Generator: Sketch 63 (92445) - https://sketch.com -->
    <title>Logo</title>
    <desc>Created with Sketch.</desc>
    <g id="Homepage" stroke="none" stroke-width="1" fill="none" fill-rule="evenodd">
        <g id="Homepage__Grid-1200px" transform="translate(-156.000000, -62.000000)" fill="#FFFFFE">
            <g id="Navigation" transform="translate(132.000000, 48.000000)">
                <g id="Logo" transform="translate(24.000000, 14.000000)">
                    <g id="NEXTECH-LOGO">
                        <path d="M8.1419,13.6054 L8.1419,35.8613 L0.6063,35.8613 L0.6097,0.8248 L6.5055,0.8248 L28.1908,22.9373 L28.1908,0.8378 L35.731,0.8378 L35.731,35.7227 L29.5089,35.7227 L8.1419,13.6054 Z M38.205,34.872 L38.205,0.8271 L68.794,0.8271 L68.794,8.8352 L45.9635,8.8352 L45.9635,27.9929 L68.8376,27.9929 L68.8376,36.001 L38.205,36.001 L38.205,34.872 Z M47.7652,20.5647 L47.7652,14.591 L67.6153,14.591 L67.6153,21.6937 L47.7652,21.6937 L47.7652,20.5647 Z M104.5309,35.6657 L92.0188,23.0291 L79.3014,36.001 L69.7031,36.001 L87.0613,17.7618 L69.8119,0.8273 L80.956,0.8273 L92.5767,12.5319 L104.0295,0.8273 L114.4281,0.8273 L97.4962,17.7578 L115.8298,36.001 L104.8629,36.001 L104.5309,35.6657 Z M127.2917,34.872 L127.2917,8.8352 L115.2433,8.8352 L115.2433,0.8271 L132.1843,0.8271 L132.184,36.001 L127.2917,36.001 L127.2917,34.872 Z" id="Fill-2"></path>
                        <path d="M154.0953,34.872 L154.0953,0.8271 L184.6839,0.8271 L184.6839,8.8352 L161.8534,8.8352 L161.8534,27.9929 L184.7279,27.9929 L184.7279,36.001 L154.0953,36.001 L154.0953,34.872 Z M163.6551,20.5647 L163.6551,14.591 L183.5053,14.591 L183.5053,21.6937 L163.6551,21.6937 L163.6551,20.5647 Z M202.3015,36.001 C201.1269,36.001 199.9859,35.8845 198.8804,35.6521 C197.778,35.4202 196.7179,35.071 195.7008,34.605 C194.6953,34.1441 193.7551,33.5978 192.8812,32.9663 C192.0084,32.3358 191.1991,31.6181 190.4544,30.8131 C189.7112,30.0097 189.0507,29.1324 188.4736,28.1817 C187.895,27.2289 187.4021,26.2102 186.9947,25.1271 C186.5829,24.0306 186.2745,22.8934 186.0698,21.7164 C185.8654,20.5398 185.7631,19.3254 185.7631,18.0745 C185.7631,16.8048 185.8654,15.5854 186.0698,14.4166 C186.2739,13.2516 186.5837,12.1319 186.9993,11.0584 C187.4151,9.9844 187.9095,8.9957 188.4821,8.0925 C189.0595,7.1821 189.7245,6.3447 190.4765,5.581 C191.2212,4.825 192.033,4.1541 192.9118,3.5682 C193.7902,2.9825 194.7333,2.4828 195.7405,2.0698 C196.7533,1.6545 197.8072,1.3438 198.902,1.1377 C200.0024,0.9308 201.1357,0.8271 202.3015,0.8271 L220.6301,0.8271 L220.6301,8.8352 L202.3015,8.8352 C201.6623,8.8352 201.05,8.8939 200.465,9.0112 L200.4641,9.007 C199.8898,9.1224 199.3351,9.2967 198.8008,9.5306 C198.2704,9.7624 197.7743,10.0408 197.3131,10.3654 C196.8562,10.6868 196.4364,11.0525 196.0546,11.4618 C195.6685,11.8757 195.3246,12.3284 195.0236,12.8202 C194.7206,13.3151 194.4567,13.8574 194.2322,14.4461 C194.0102,15.0284 193.8435,15.6409 193.733,16.283 C193.621,16.9318 193.5649,17.6198 193.5649,18.346 C193.5649,19.0572 193.621,19.7375 193.733,20.3864 C193.8461,21.0423 194.0128,21.6654 194.2322,22.255 C194.4544,22.8514 194.7197,23.407 195.0278,23.9204 C195.3277,24.4198 195.6716,24.881 196.0588,25.3028 C196.448,25.7266 196.8692,26.1013 197.3222,26.4265 C197.774,26.7507 198.2715,27.0353 198.8141,27.2794 C199.3473,27.5192 199.8992,27.6981 200.4692,27.8157 C201.0424,27.9339 201.6533,27.9929 202.3015,27.9929 L220.6301,27.9929 L220.6301,36.001 L202.3015,36.001 Z M248.3572,35.0078 L248.3572,21.8295 L232.3803,21.8295 L232.3803,14.4552 L248.3572,14.4552 L248.3572,0.8271 L256.159,0.8271 L256.159,36.1368 L248.3572,36.1368 L248.3572,35.0078 Z M222.8201,35.0078 L222.8201,0.8271 L230.6219,0.8271 L230.6219,36.1368 L222.8201,36.1368 L222.8201,35.0078 Z M139.3149,34.872 L139.3149,8.8352 L151.363,8.8352 L151.363,0.8271 L134.4223,0.8271 L134.4226,36.001 L139.3149,36.001 L139.3149,34.872 Z" id="Fill-3"></path>
                    </g>
                </g>
            </g>
        </g>
    </g>
</svg>