<?xml version="1.0" encoding="UTF-8" standalone="no"?>
<!-- Created with Inkscape (http://www.inkscape.org/) -->
<svg xmlns:dc="http://purl.org/dc/elements/1.1/" xmlns:cc="http://creativecommons.org/ns#" xmlns:rdf="http://www.w3.org/1999/02/22-rdf-syntax-ns#" xmlns:svg="http://www.w3.org/2000/svg" xmlns="http://www.w3.org/2000/svg" xmlns:sodipodi="http://sodipodi.sourceforge.net/DTD/sodipodi-0.dtd" xmlns:inkscape="http://www.inkscape.org/namespaces/inkscape" width="1000" height="628.3667" viewBox="0 0 264.58333 166.25536" version="1.1" id="svg8" inkscape:version="0.92.4 (5da689c313, 2019-01-14)" sodipodi:docname="a.svg">
  <defs id="defs2">
    <clipPath clipPathUnits="userSpaceOnUse" id="clipPath23">
      <path d="M 0,595.276 H 841.89 V 0 H 0 Z" id="path21" inkscape:connector-curvature="0"/>
    </clipPath>
  </defs>
  <sodipodi:namedview id="base" pagecolor="#ffffff" bordercolor="#666666" borderopacity="1.0" inkscape:pageopacity="0.0" inkscape:pageshadow="2" inkscape:zoom="0.7" inkscape:cx="820.01013" inkscape:cy="351.55745" inkscape:document-units="px" inkscape:current-layer="layer1" showgrid="false" units="px" inkscape:window-width="1920" inkscape:window-height="1017" inkscape:window-x="1912" inkscape:window-y="-8" inkscape:window-maximized="1" fit-margin-top="0" fit-margin-left="0" fit-margin-right="0" fit-margin-bottom="0"/>
  <metadata id="metadata5">
    <rdf:RDF>
      <cc:Work rdf:about="">
        <dc:format>image/svg+xml</dc:format>
        <dc:type rdf:resource="http://purl.org/dc/dcmitype/StillImage"/>
        <dc:title/>
      </cc:Work>
    </rdf:RDF>
  </metadata>
  <g inkscape:label="Layer 1" inkscape:groupmode="layer" id="layer1" transform="translate(127.8602,283.24275)">
    <g transform="matrix(1.367722,0,0,-1.367722,-572.86895,205.2657)" id="g17">
      <g id="g19" clip-path="url(#clipPath23)">
        <g id="g25" transform="translate(335.3984,256.1152)">
          <path d="M 0,0 H -2.698 V -2.318 H 0 c 0.848,0 1.228,0.621 1.228,1.191 C 1.228,-0.57 0.848,0 0,0 m 2.786,-6.346 c 0,-0.392 -0.305,-0.771 -0.773,-0.771 -0.343,0 -0.556,0.152 -0.684,0.418 l -1.482,3.053 h -2.545 v -2.7 c 0,-0.429 -0.342,-0.771 -0.772,-0.771 -0.429,0 -0.773,0.342 -0.773,0.771 v 6.991 c 0,0.431 0.344,0.773 0.773,0.773 h 3.255 c 2.101,0 3.001,-1.039 3.001,-2.533 0,-0.987 -0.431,-1.836 -1.394,-2.254 l 1.304,-2.649 c 0.052,-0.099 0.09,-0.214 0.09,-0.328" style="fill:#e60a61;fill-opacity:1;fill-rule:nonzero;stroke:none" id="path27" inkscape:connector-curvature="0"/>
        </g>
        <g id="g29" transform="translate(344.8711,256.291)">
          <path d="m 0,0 c -1.722,0 -2.772,-1.367 -2.772,-2.975 0,-1.609 1.05,-2.976 2.772,-2.976 1.722,0 2.772,1.367 2.772,2.976 C 2.772,-1.367 1.722,0 0,0 m 0,-7.342 c -2.482,0 -4.331,1.922 -4.331,4.367 0,2.444 1.849,4.37 4.331,4.37 2.481,0 4.331,-1.926 4.331,-4.37 0,-2.445 -1.85,-4.367 -4.331,-4.367" style="fill:#e60a61;fill-opacity:1;fill-rule:nonzero;stroke:none" id="path31" inkscape:connector-curvature="0"/>
        </g>
        <g id="g33" transform="translate(357.5591,249.0996)">
          <path d="m 0,0 h -5.229 c -0.406,0 -0.734,0.316 -0.734,0.721 0,0.166 0.063,0.304 0.164,0.429 l 4.331,5.852 h -3.747 c -0.393,0 -0.723,0.33 -0.723,0.723 0,0.39 0.33,0.709 0.723,0.709 h 5.178 c 0.391,0 0.722,-0.319 0.722,-0.709 0,-0.166 -0.063,-0.317 -0.164,-0.446 L -3.81,1.43 H 0 C 0.393,1.43 0.723,1.115 0.723,0.721 0.723,0.33 0.406,0 0,0" style="fill:#e60a61;fill-opacity:1;fill-rule:nonzero;stroke:none" id="path35" inkscape:connector-curvature="0"/>
        </g>
        <g id="g37" transform="translate(367.5024,248.998)">
          <path d="M 0,0 C -0.431,0 -0.772,0.355 -0.772,0.785 V 3.723 H -4.774 V 0.785 C -4.774,0.355 -5.103,0 -5.533,0 -5.964,0 -6.319,0.355 -6.319,0.785 V 7.85 c 0,0.431 0.355,0.787 0.786,0.787 0.43,0 0.759,-0.356 0.759,-0.787 V 5.166 h 4.002 V 7.85 c 0,0.431 0.341,0.787 0.772,0.787 0.431,0 0.772,-0.356 0.772,-0.787 V 0.785 C 0.772,0.355 0.431,0 0,0" style="fill:#e60a61;fill-opacity:1;fill-rule:nonzero;stroke:none" id="path39" inkscape:connector-curvature="0"/>
        </g>
        <g id="g41" transform="translate(372.3535,249.0996)">
          <path d="m 0,0 c -0.431,0 -0.786,0.354 -0.786,0.783 v 6.965 c 0,0.432 0.355,0.787 0.786,0.787 0.431,0 0.759,-0.355 0.759,-0.787 V 1.457 H 4.456 C 4.849,1.457 5.179,1.139 5.179,0.734 5.179,0.33 4.849,0.012 4.456,0 Z" style="fill:#e60a61;fill-opacity:1;fill-rule:nonzero;stroke:none" id="path43" inkscape:connector-curvature="0"/>
        </g>
        <g id="g45" transform="translate(383.5483,255.5313)">
          <path d="m 0,0 -1.316,-3.215 h 2.633 z m 1.874,-4.57 h -3.749 l -0.721,-1.545 c -0.139,-0.254 -0.316,-0.418 -0.646,-0.418 -0.456,0 -0.734,0.355 -0.734,0.722 0,0.1 0.025,0.202 0.076,0.303 l 3.242,7.205 c 0.114,0.254 0.329,0.407 0.658,0.407 0.33,0 0.545,-0.143 0.659,-0.407 l 3.242,-7.205 c 0.05,-0.101 0.075,-0.203 0.075,-0.303 0,-0.367 -0.279,-0.722 -0.735,-0.722 -0.328,0 -0.505,0.152 -0.644,0.418 z" style="fill:#e60a61;fill-opacity:1;fill-rule:nonzero;stroke:none" id="path47" inkscape:connector-curvature="0"/>
        </g>
        <g id="g49" transform="translate(393.1089,248.9492)">
          <path d="m 0,0 c -1.026,0 -2.191,0.314 -2.925,0.885 -0.254,0.201 -0.431,0.455 -0.431,0.734 0,0.393 0.253,0.656 0.646,0.656 0.14,0 0.266,-0.035 0.393,-0.111 0.683,-0.432 1.152,-0.81 2.342,-0.81 1.216,0 1.697,0.494 1.697,1.062 0,0.621 -0.494,0.938 -2.014,1.342 -2.292,0.609 -2.975,1.342 -2.975,2.609 0,1.543 1.329,2.369 3.343,2.369 0.456,0 1.076,-0.076 1.621,-0.228 0.581,-0.166 1.316,-0.533 1.316,-1.037 0,-0.344 -0.202,-0.7 -0.633,-0.7 -0.102,0 -0.202,0.012 -0.304,0.065 -0.581,0.266 -1.189,0.531 -1.988,0.531 -1.127,0 -1.81,-0.303 -1.81,-0.961 0,-0.621 0.505,-0.838 2.025,-1.279 C 2.038,4.619 3.266,4.125 3.266,2.504 3.266,1.037 2.153,0 0,0" style="fill:#e60a61;fill-opacity:1;fill-rule:nonzero;stroke:none" id="path51" inkscape:connector-curvature="0"/>
        </g>
        <g id="g53" transform="translate(407.3047,255.5313)">
          <path d="m 0,0 -1.316,-3.215 h 2.633 z m 1.875,-4.57 h -3.75 l -0.72,-1.545 c -0.139,-0.254 -0.317,-0.418 -0.647,-0.418 -0.455,0 -0.734,0.355 -0.734,0.722 0,0.1 0.025,0.202 0.077,0.303 l 3.241,7.205 c 0.115,0.254 0.33,0.407 0.658,0.407 0.33,0 0.545,-0.143 0.66,-0.407 l 3.241,-7.205 c 0.05,-0.101 0.075,-0.203 0.075,-0.303 0,-0.367 -0.279,-0.722 -0.734,-0.722 -0.328,0 -0.506,0.152 -0.645,0.418 z" style="fill:#e60a61;fill-opacity:1;fill-rule:nonzero;stroke:none" id="path55" inkscape:connector-curvature="0"/>
        </g>
        <g id="g57" transform="translate(423.6309,256.0762)">
          <path d="m 0,0 h -2.167 v -6.293 c 0,-0.43 -0.354,-0.785 -0.784,-0.785 -0.43,0 -0.76,0.355 -0.76,0.785 V 0 h -2.178 c -0.406,0 -0.734,0.33 -0.734,0.721 0,0.406 0.317,0.736 0.734,0.736 H 0 c 0.404,0 0.734,-0.33 0.734,-0.736 C 0.734,0.33 0.417,0 0,0" style="fill:#e60a61;fill-opacity:1;fill-rule:nonzero;stroke:none" id="path59" inkscape:connector-curvature="0"/>
        </g>
        <g id="g61" transform="translate(432.418,249.0996)">
          <path d="M 0,0 H -4.747 C -5.178,0 -5.533,0.342 -5.533,0.771 V 7.66 c 0,0.432 0.355,0.774 0.786,0.774 h 4.559 c 0.405,0 0.735,-0.305 0.735,-0.709 0,-0.405 -0.33,-0.723 -0.735,-0.723 h -3.8 V 4.99 h 2.09 c 0.392,0 0.722,-0.318 0.722,-0.722 0,-0.405 -0.33,-0.709 -0.722,-0.709 h -2.09 V 1.43 H 0 C 0.406,1.43 0.734,1.115 0.734,0.709 0.734,0.303 0.406,0 0,0" style="fill:#e60a61;fill-opacity:1;fill-rule:nonzero;stroke:none" id="path63" inkscape:connector-curvature="0"/>
        </g>
        <g id="g65" transform="translate(436.5977,249.0996)">
          <path d="m 0,0 c -0.43,0 -0.785,0.354 -0.785,0.783 v 6.965 c 0,0.432 0.355,0.787 0.785,0.787 0.432,0 0.76,-0.355 0.76,-0.787 V 1.457 H 4.457 C 4.85,1.457 5.18,1.139 5.18,0.734 5.18,0.33 4.85,0.012 4.457,0 Z" style="fill:#e60a61;fill-opacity:1;fill-rule:nonzero;stroke:none" id="path67" inkscape:connector-curvature="0"/>
        </g>
        <g id="g69" transform="translate(449.8691,249.0996)">
          <path d="m 0,0 h -4.748 c -0.43,0 -0.785,0.342 -0.785,0.771 V 7.66 c 0,0.432 0.355,0.774 0.785,0.774 h 4.559 c 0.404,0 0.734,-0.305 0.734,-0.709 0,-0.405 -0.33,-0.723 -0.734,-0.723 H -3.988 V 4.99 h 2.09 c 0.392,0 0.722,-0.318 0.722,-0.722 0,-0.405 -0.33,-0.709 -0.722,-0.709 h -2.09 V 1.43 H 0 C 0.406,1.43 0.734,1.115 0.734,0.709 0.734,0.303 0.406,0 0,0" style="fill:#e60a61;fill-opacity:1;fill-rule:nonzero;stroke:none" id="path71" inkscape:connector-curvature="0"/>
        </g>
        <g id="g73" transform="translate(460.2305,256.6074)">
          <path d="m 0,0 -3.129,-7.191 c -0.113,-0.254 -0.379,-0.418 -0.658,-0.418 -0.291,0 -0.545,0.152 -0.658,0.418 L -7.586,0 c -0.037,0.09 -0.062,0.189 -0.062,0.293 0,0.379 0.316,0.734 0.709,0.734 0.279,0 0.556,-0.152 0.669,-0.42 l 2.469,-5.886 2.496,5.886 c 0.114,0.256 0.367,0.42 0.645,0.42 0.406,0 0.723,-0.33 0.723,-0.722 C 0.063,0.203 0.039,0.102 0,0" style="fill:#e60a61;fill-opacity:1;fill-rule:nonzero;stroke:none" id="path75" inkscape:connector-curvature="0"/>
        </g>
        <g id="g77" transform="translate(464.9414,259.6348)">
          <path d="m 0,0 c 0,-0.127 -0.064,-0.266 -0.141,-0.369 l -0.57,-0.772 c -0.113,-0.152 -0.24,-0.24 -0.492,-0.24 -0.293,0 -0.61,0.268 -0.61,0.582 0,0.153 0.065,0.278 0.153,0.381 l 0.596,0.772 c 0.113,0.152 0.253,0.24 0.482,0.24 C -0.254,0.594 0,0.367 0,0 m -1.203,-10.637 c -0.432,0 -0.787,0.356 -0.787,0.785 v 7.065 c 0,0.432 0.355,0.787 0.787,0.787 0.43,0 0.76,-0.355 0.76,-0.787 v -7.065 c 0,-0.429 -0.33,-0.785 -0.76,-0.785" style="fill:#e60a61;fill-opacity:1;fill-rule:nonzero;stroke:none" id="path79" inkscape:connector-curvature="0"/>
        </g>
        <g id="g81" transform="translate(473.5898,249.0996)">
          <path d="m 0,0 h -5.229 c -0.406,0 -0.734,0.316 -0.734,0.721 0,0.166 0.063,0.304 0.164,0.429 l 4.33,5.852 h -3.746 c -0.392,0 -0.723,0.33 -0.723,0.723 0,0.39 0.331,0.709 0.723,0.709 h 5.178 C 0.355,8.434 0.684,8.115 0.684,7.725 0.684,7.559 0.621,7.408 0.52,7.279 L -3.811,1.43 H 0 C 0.393,1.43 0.723,1.115 0.723,0.721 0.723,0.33 0.406,0 0,0" style="fill:#e60a61;fill-opacity:1;fill-rule:nonzero;stroke:none" id="path83" inkscape:connector-curvature="0"/>
        </g>
        <g id="g85" transform="translate(478.0742,248.998)">
          <path d="M 0,0 C -0.432,0 -0.785,0.355 -0.785,0.785 V 7.85 c 0,0.431 0.353,0.787 0.785,0.787 0.432,0 0.76,-0.356 0.76,-0.787 V 0.785 C 0.76,0.355 0.432,0 0,0" style="fill:#e60a61;fill-opacity:1;fill-rule:nonzero;stroke:none" id="path87" inkscape:connector-curvature="0"/>
        </g>
        <g id="g89" transform="translate(485.5586,255.5313)">
          <path d="m 0,0 -1.316,-3.215 h 2.632 z m 1.875,-4.57 h -3.75 l -0.721,-1.545 c -0.138,-0.254 -0.316,-0.418 -0.646,-0.418 -0.455,0 -0.735,0.355 -0.735,0.722 0,0.1 0.026,0.202 0.077,0.303 l 3.242,7.205 c 0.115,0.254 0.33,0.407 0.658,0.407 0.33,0 0.545,-0.143 0.66,-0.407 L 3.9,-5.508 c 0.051,-0.101 0.075,-0.203 0.075,-0.303 0,-0.367 -0.278,-0.722 -0.733,-0.722 -0.328,0 -0.506,0.152 -0.644,0.418 z" style="fill:#e60a61;fill-opacity:1;fill-rule:nonzero;stroke:none" id="path91" inkscape:connector-curvature="0"/>
        </g>
        <g id="g93" transform="translate(334.1953,235.6133)">
          <path d="m 0,0 c -1.026,0 -2.191,0.316 -2.925,0.887 -0.254,0.201 -0.431,0.455 -0.431,0.734 0,0.393 0.253,0.656 0.647,0.656 0.138,0 0.264,-0.035 0.392,-0.111 0.683,-0.432 1.152,-0.811 2.342,-0.811 1.216,0 1.697,0.495 1.697,1.063 0,0.621 -0.494,0.937 -2.014,1.342 -2.292,0.609 -2.975,1.342 -2.975,2.607 0,1.545 1.329,2.371 3.343,2.371 0.456,0 1.076,-0.076 1.621,-0.228 0.582,-0.166 1.316,-0.533 1.316,-1.037 0,-0.344 -0.202,-0.7 -0.634,-0.7 -0.1,0 -0.202,0.012 -0.302,0.065 -0.582,0.266 -1.191,0.531 -1.989,0.531 -1.127,0 -1.81,-0.303 -1.81,-0.961 0,-0.621 0.507,-0.838 2.025,-1.279 C 2.038,4.621 3.266,4.127 3.266,2.506 3.266,1.039 2.153,0 0,0" style="fill:#e60a61;fill-opacity:1;fill-rule:nonzero;stroke:none" id="path95" inkscape:connector-curvature="0"/>
        </g>
        <g id="g97" transform="translate(341.1108,235.7656)">
          <path d="m 0,0 c -0.431,0 -0.786,0.354 -0.786,0.783 v 6.965 c 0,0.432 0.355,0.785 0.786,0.785 0.431,0 0.759,-0.353 0.759,-0.785 V 1.455 H 4.457 C 4.849,1.455 5.179,1.139 5.179,0.734 5.179,0.328 4.849,0.012 4.457,0 Z" style="fill:#e60a61;fill-opacity:1;fill-rule:nonzero;stroke:none" id="path99" inkscape:connector-curvature="0"/>
        </g>
        <g id="g101" transform="translate(352.0767,242.957)">
          <path d="m 0,0 c -1.722,0 -2.772,-1.367 -2.772,-2.975 0,-1.609 1.05,-2.976 2.772,-2.976 1.722,0 2.773,1.367 2.773,2.976 C 2.773,-1.367 1.722,0 0,0 m 0,-7.344 c -2.482,0 -4.33,1.924 -4.33,4.369 0,2.444 1.848,4.37 4.33,4.37 2.481,0 4.331,-1.926 4.331,-4.37 0,-2.445 -1.85,-4.369 -4.331,-4.369" style="fill:#e60a61;fill-opacity:1;fill-rule:nonzero;stroke:none" id="path103" inkscape:connector-curvature="0"/>
        </g>
        <g id="g105" transform="translate(365.9697,243.2734)">
          <path d="m 0,0 -3.129,-7.191 c -0.113,-0.254 -0.379,-0.418 -0.658,-0.418 -0.292,0 -0.545,0.152 -0.658,0.418 L -7.585,0 c -0.039,0.09 -0.063,0.189 -0.063,0.293 0,0.379 0.316,0.732 0.709,0.732 0.278,0 0.557,-0.152 0.669,-0.418 l 2.47,-5.886 2.496,5.886 c 0.112,0.254 0.366,0.418 0.644,0.418 0.407,0 0.723,-0.328 0.723,-0.72 C 0.063,0.203 0.038,0.102 0,0" style="fill:#e60a61;fill-opacity:1;fill-rule:nonzero;stroke:none" id="path107" inkscape:connector-curvature="0"/>
        </g>
        <g id="g109" transform="translate(374.1763,235.7656)">
          <path d="M 0,0 H -4.748 C -5.179,0 -5.534,0.342 -5.534,0.771 V 7.66 c 0,0.432 0.355,0.774 0.786,0.774 h 4.559 c 0.404,0 0.734,-0.305 0.734,-0.709 0,-0.405 -0.33,-0.723 -0.734,-0.723 h -3.8 V 4.988 h 2.09 c 0.393,0 0.722,-0.316 0.722,-0.72 0,-0.405 -0.329,-0.711 -0.722,-0.711 h -2.09 V 1.43 H 0 C 0.406,1.43 0.734,1.115 0.734,0.709 0.734,0.303 0.406,0 0,0" style="fill:#e60a61;fill-opacity:1;fill-rule:nonzero;stroke:none" id="path111" inkscape:connector-curvature="0"/>
        </g>
        <g id="g113" transform="translate(383.9526,235.6641)">
          <path d="M 0,0 C -0.24,0 -0.418,0.09 -0.557,0.266 L -4.926,5.787 V 0.723 C -4.926,0.316 -5.255,0 -5.66,0 -6.053,0 -6.382,0.328 -6.382,0.723 v 7.179 c 0,0.391 0.291,0.733 0.76,0.733 0.203,0 0.418,-0.114 0.532,-0.266 l 4.369,-5.521 v 5.054 c 0,0.391 0.29,0.733 0.721,0.733 0.431,0 0.734,-0.342 0.734,-0.733 V 0.723 C 0.734,0.328 0.431,0 0,0" style="fill:#e60a61;fill-opacity:1;fill-rule:nonzero;stroke:none" id="path115" inkscape:connector-curvature="0"/>
        </g>
        <g id="g117" transform="translate(391.019,235.6133)">
          <path d="m 0,0 c -1.026,0 -2.191,0.316 -2.925,0.887 -0.254,0.201 -0.431,0.455 -0.431,0.734 0,0.393 0.253,0.656 0.646,0.656 0.14,0 0.266,-0.035 0.393,-0.111 0.683,-0.432 1.152,-0.811 2.342,-0.811 1.216,0 1.697,0.495 1.697,1.063 0,0.621 -0.494,0.937 -2.014,1.342 -2.292,0.609 -2.975,1.342 -2.975,2.607 0,1.545 1.329,2.371 3.343,2.371 0.456,0 1.076,-0.076 1.621,-0.228 0.582,-0.166 1.316,-0.533 1.316,-1.037 0,-0.344 -0.202,-0.7 -0.633,-0.7 -0.101,0 -0.202,0.012 -0.304,0.065 -0.581,0.266 -1.189,0.531 -1.988,0.531 -1.127,0 -1.81,-0.303 -1.81,-0.961 0,-0.621 0.507,-0.838 2.025,-1.279 C 2.038,4.621 3.267,4.127 3.267,2.506 3.267,1.039 2.153,0 0,0" style="fill:#e60a61;fill-opacity:1;fill-rule:nonzero;stroke:none" id="path119" inkscape:connector-curvature="0"/>
        </g>
        <g id="g121" transform="translate(397.9346,235.6641)">
          <path d="M 0,0 C -0.431,0 -0.786,0.354 -0.786,0.785 V 7.85 c 0,0.431 0.355,0.785 0.786,0.785 0.431,0 0.759,-0.354 0.759,-0.785 V 4.748 l 3.812,3.684 c 0.139,0.138 0.316,0.203 0.507,0.203 0.38,0 0.747,-0.303 0.747,-0.709 0,-0.24 -0.076,-0.418 -0.228,-0.559 L 3.394,5.242 5.964,1.141 C 6.052,1.012 6.09,0.848 6.09,0.709 6.09,0.367 5.85,0 5.381,0 5.091,0 4.862,0.113 4.736,0.316 L 2.317,4.203 0.759,2.697 V 0.785 C 0.759,0.354 0.431,0 0,0" style="fill:#e60a61;fill-opacity:1;fill-rule:nonzero;stroke:none" id="path123" inkscape:connector-curvature="0"/>
        </g>
        <g id="g125" transform="translate(410.1802,242.1973)">
          <path d="m 0,0 -1.316,-3.215 h 2.633 z m 1.874,-4.57 h -3.749 l -0.72,-1.545 c -0.139,-0.254 -0.317,-0.418 -0.647,-0.418 -0.455,0 -0.734,0.353 -0.734,0.722 0,0.1 0.025,0.202 0.077,0.303 l 3.241,7.205 c 0.114,0.252 0.33,0.405 0.658,0.405 0.33,0 0.545,-0.141 0.66,-0.405 l 3.241,-7.205 c 0.05,-0.101 0.075,-0.203 0.075,-0.303 0,-0.369 -0.279,-0.722 -0.735,-0.722 -0.328,0 -0.505,0.152 -0.644,0.418 z" style="fill:#e60a61;fill-opacity:1;fill-rule:nonzero;stroke:none" id="path127" inkscape:connector-curvature="0"/>
        </g>
        <g id="g129" transform="translate(478.4648,343.1504)">
          <path d="m 0,0 c -3.128,0 -3.806,-1.641 -5.322,-3.949 0,0 -17.133,-29.511 -17.321,-29.802 -0.185,-0.293 -0.345,-0.277 -0.491,0.012 -1.813,3.554 -13.909,28.964 -14.893,30.891 C -39.088,-0.763 -40.86,0 -43.094,0 H -79.43 l 1.638,13.322 c 0,0 0.129,0.697 -0.651,0.697 -0.663,0 -10.898,-0.005 -10.898,-0.005 h -0.088 c -4.125,-0.27 -7.525,-3.441 -8.088,-7.559 L -98.31,0 h -12.497 c -27.139,0 -36.494,-19.522 -37.645,-29.827 l -4.598,-37.446 c 0,0 -0.473,-2.069 1.494,-2.069 h 12.491 c 3.164,-0.002 4.941,2.6 5.245,5.069 l 3.987,32.297 c 0.338,2.313 2.786,13.233 19.026,13.233 h 10.196 l -2.019,-16.478 c -0.395,-2.437 -1.948,-15.08 6.092,-24.634 3.645,-4.329 10.628,-9.487 23.199,-9.487 h 0.281 c 5.836,0.033 7.008,0.063 8.242,0.063 1.233,0 1.489,1.513 1.489,1.513 0,0 0.127,0.838 0.765,6.805 0.615,5.74 -2.003,9.781 -8.809,9.781 -6.511,0 -2.091,-0.043 -2.091,-0.043 -4.245,0 -7.559,1.412 -9.142,3.258 -2.414,2.825 -1.784,8.153 -1.518,9.806 l 2.39,19.416 h 30.088 c 0,0 20.929,-41.325 23.579,-46.484 2.647,-5.152 5.2,-5.58 8.221,-0.564 2.674,4.439 30.615,52.697 36.892,63.602 1.306,2.274 -0.712,2.193 -0.712,2.193 z" style="fill:#e60a61;fill-opacity:1;fill-rule:nonzero;stroke:none" id="path131" inkscape:connector-curvature="0"/>
        </g>
        <g id="g133" transform="translate(508.7871,314.5532)">
          <path d="M 0,0 C 5.529,0 10.026,4.496 10.026,10.022 10.026,15.55 5.529,20.049 0,20.049 -5.527,20.049 -10.024,15.55 -10.024,10.022 -10.024,4.496 -5.527,0 0,0" style="fill:#e60a61;fill-opacity:1;fill-rule:nonzero;stroke:none" id="path135" inkscape:connector-curvature="0"/>
        </g>
        <g id="g137" transform="translate(508.7871,282.3965)">
          <path d="m 0,0 c 5.529,0 10.026,4.494 10.026,10.021 0,5.527 -4.497,10.027 -10.026,10.027 -5.527,0 -10.024,-4.5 -10.024,-10.027 C -10.024,4.494 -5.527,0 0,0" style="fill:#e60a61;fill-opacity:1;fill-rule:nonzero;stroke:none" id="path139" inkscape:connector-curvature="0"/>
        </g>
      </g>
    </g>
  </g>
</svg>