<svg viewBox="-122.8 261.6 61.7 20.6" xmlns="http://www.w3.org/2000/svg"><path d="M-122.8 261.6H-61v20.6h-61.8z"/><path d="M-100.4 263.9l3.2 1.8 3.1-1.8-.8-1.6-2.3 1.3-2.4-1.3zm-2.6 0l-1.1-1.9-3.6 2.3.9 1.6zm33.9 0l3.2 1.8 3.1-1.8-.7-1.6-2.4 1.3-2.3-1.3zm-42.9 13v-2.2c-.2.1-.4.1-.6.1h-.7c-.5 0-.8-.1-1-.4s-.3-.7-.3-1.3v-4.5h2.6v-2.1h-2.5v-3.9l-2.7.7v3.2h-1.8v2.1h1.8v5.3c0 1.2.2 2.1.6 2.5.5.5 1.2.7 2.4.7.4 0 .7 0 1.1-.1.4 0 .7 0 1.1-.1zm10.7-10.4h-2.9l-1.2 3.6c-.2.5-.4 1-.5 1.7-.2.6-.4 1.1-.5 1.7-.1-.5-.3-1-.4-1.4-.2-.5-.3-1-.5-1.4l-1.4-4h-3l3.8 10.4-.4 1c-.3.8-.6 1.3-.9 1.5-.3.3-.7.4-1.1.4-.3 0-.5 0-.7-.1s-.5-.1-.7-.2l-.2 2.3c.2.1.5.1.7.1.3.1.5.1.7.1 1.2.1 2.1-.3 2.8-.9s1.3-1.8 1.9-3.4zm7.8 10.4v-2.4h-4.1l4.1-6.1v-1.9h-7.3v2.4h3.2c.4 0 .7 0 .9-.1l-4.2 6.1v1.9zm11.9-.1v-1.7c-.3 0-.6-.1-.9-.1-.3-.1-.6-.1-.9-.1v-13.3h-2.3c-.8.1-1.5.1-2.2.2v1.7c.3 0 .6.1.9.1.3.1.6.1.9.1v2.7c-.2-.1-.5-.1-.7-.1h-.7c-1.8.1-3.1.6-4 1.7-1 1.1-1.4 2.5-1.4 4.3 0 1.5.3 2.7.9 3.6s1.6 1.3 2.8 1.3c.8 0 1.5-.2 2.1-.6s1-.8 1.2-1.4h.1c-.1.3-.1.6-.1.9s-.1.6-.1.9h2.2c.8-.1 1.5-.1 2.2-.2zm-4.5-5.3c0 .9-.2 1.7-.6 2.4s-.9 1-1.7 1c-.6 0-1-.3-1.3-.7-.3-.5-.4-1.2-.4-2.2 0-1.3.3-2.2.7-2.7s1.1-.8 1.9-.8c.2 0 .5 0 .7.1.3.1.5.1.7.1zm13.8-.6c0-1.3-.4-2.4-1-3.3-.7-.9-1.8-1.3-3.3-1.3-1.5.1-2.8.6-3.6 1.5-.8 1-1.2 2.3-1.3 4 0 1.8.5 3.1 1.3 4 .9.9 2.2 1.3 3.8 1.3.7 0 1.3-.1 1.9-.2s1.2-.3 1.8-.5l-.3-2.1c-.5.2-.9.4-1.5.5-.5.1-1 .2-1.5.2-1 0-1.7-.3-2.2-.7-.5-.5-.7-1.2-.7-2.2h6.5c.1-.2.1-.4.1-.6zm-2.6-.5h-3.8c.1-.6.3-1.1.7-1.5s.8-.6 1.4-.6 1 .2 1.3.6c.2.3.4.8.4 1.5zm7.3-3.9h-2.2c-.8.1-1.4.1-2.1.2v1.7c.3 0 .6.1.9.1.3.1.6.1.9.1v8.4h2.6v-5c0-.9.3-1.7.7-2.4.5-.6 1-1 1.7-1 .5 0 .8.2 1 .5s.3.7.3 1.3v6.7h2.7v-7.3c0-.9-.2-1.7-.7-2.3s-1.3-1-2.4-1c-.8 0-1.5.2-2.2.6s-1 .9-1.4 1.5c.1-.3.1-.6.1-.9.1-.6.1-1 .1-1.2z" fill="#fff"/><path d="M-121.1 273.8c-.5 0-.9.2-1.2.5s-.5.7-.5 1.2.2.9.5 1.2.7.5 1.2.5.9-.2 1.2-.5.5-.7.5-1.2-.2-.9-.5-1.2c-.4-.4-.7-.5-1.2-.5z" fill="#e03c31"/></svg>