<svg xmlns="http://www.w3.org/2000/svg" width="91" height="62" viewBox="0 0 91 62">
    <path fill="#2F466E" fill-opacity=".25" fill-rule="evenodd" d="M36.5 0C38.985 0 41 2.015 41 4.5v42.175c0 1.494-.741 2.89-1.978 3.727l-16 10.825c-2.059 1.393-4.856.853-6.25-1.206C16.27 59.277 16 58.4 16 57.5V45.294c0-1.494.741-2.89 1.978-3.727l3.814-2.581H4.5c-2.485 0-4.5-2.014-4.5-4.5V4.5C0 2.015 2.015 0 4.5 0h32zM91 46.675c0 1.494-.741 2.89-1.978 3.727l-16 10.825c-2.059 1.393-4.856.853-6.25-1.206C66.27 59.277 66 58.4 66 57.5V45.294c0-1.494.741-2.89 1.978-3.727l3.814-2.581H54.5c-2.485 0-4.5-2.014-4.5-4.5V4.5C50 2.015 52.015 0 54.5 0h32C88.985 0 91 2.015 91 4.5v42.175z"/>
</svg>
