<svg xmlns="http://www.w3.org/2000/svg" width="231" height="344" viewBox="0 0 231 344">
    <g fill="none" fill-rule="evenodd">
        <path fill="#E5E5E5" d="M188.445 254.556c6.78 52.43 10.598 88.575 10.598 88.575H41.728l10-80.128S16.103 271.04.865 245.675c-6.22-13.104 22.752-74.824 33.66-97.183 2.563-5.24 6.717-9.539 11.893-12.272l18.049-9.55 2.076-1.094.275-3.341 7.313-91.195C75.077 13.639 89.493 0 106.945 0h23.05c16.817 0 30.924 12.681 32.677 29.387l9.578 91.184.236 2.222 3.335 1.442 25.462 10.98c7.338 3.441 12.786 9.937 14.901 17.749l13.422 66.776c2.9 10.707-2.288 21.972-12.364 26.656-7.14 3.317-16.682 6.521-28.797 8.16z"/>
        <path fill="#C5C5C5" d="M117.873 107.675h-3.002c-17.81 0-32.249-14.416-32.249-32.202V36.668v31.83c0 17.167 13.658 31.149 30.718 31.698h.002l.143.004h.007l.14.004h.012l.066.001h.002c.023.002.046.002.068.002h.015l.059.001h.01l.067.001h.012l.06.002h.078l.012.001H118.647l.015-.001h.1c.004 0 .008 0 .014-.002h.092l.018-.001h.047l.032-.001h.016l.094-.002.017-.001h.03l.02-.001h.048c.008-.002.016-.002.025-.002h.021l.043-.001.021-.001h.026l.021-.002h.025l.023-.001h.024l.022-.001.029-.002.036-.001h.025l.023-.001c.008 0 .015 0 .021-.002h.026l.023-.001.024-.001h.025c.01-.002.023-.002.033-.002l.03-.001.025-.001.02-.002.028-.001h.016l.028-.001.016-.002c.036-.001.074-.002.108-.005h.006l.033-.001.013-.002.031-.001h.012l.112-.007h.004l.035-.002h.01c.01-.002.022-.002.033-.003h.01c.011-.001.024-.001.035-.003h.003l.116-.006h.007c.012-.002.022-.003.036-.003l.006-.001.036-.002.004-.001.16-.01h.003c16.457-1.187 29.44-14.895 29.44-31.633v6.976c0 17.786-14.438 32.202-32.249 32.202"/>
        <path fill="#FFDDCE" d="M118.362 100.212h-3.98c-17.54 0-31.76-14.199-31.76-31.715v-36.98c0-6.56 5.325-11.876 11.895-11.876h43.71c6.569 0 11.895 5.316 11.895 11.876v36.98c0 17.516-14.22 31.715-31.76 31.715"/>
        <path fill="#FFFFFE" d="M148.705 77.888l-30.07-11.512c-1.438-.55-3.044-.45-4.402.272L85.59 81.885c5.056 10.824 16.044 18.327 28.793 18.327h3.979c14.266 0 26.334-9.392 30.343-22.324"/>
        <path fill="#F2B8A9" d="M133.18 66.639c-.785 0-1.569-.05-2.315-.138l19.244-22.469c-.026-1.019-.311-1.987-.833-2.844l-21.222 24.767c-1.207-.335-2.351-.783-3.407-1.328l22.165-25.899c-.36-.224-.734-.41-1.13-.572l-22.142 25.85c-3.732-2.249-6.357-5.79-6.992-9.863h-.498c-1.107 7.056-8.122 12.496-16.63 12.496-1.356 0-2.687-.138-3.943-.411l24.617-28.73h-3.272L92.84 65.485c-.92-.336-1.779-.733-2.612-1.205l22.937-26.78h-6.543L86.31 61.21c-1.854-2-3.11-4.423-3.52-7.068-.112-.647-.162-1.304-.162-1.975v-7.961c0-3.715 3.483-6.708 7.786-6.708h51.909c1.207 0 2.339.236 3.36.657.396.163.77.348 1.13.572 1.044.621 1.903 1.467 2.464 2.46.522.857.807 1.825.833 2.844l.012.175v10.036c-1.107 7.054-8.434 12.396-16.942 12.396"/>
        <path fill="#E5E5E5" d="M79.185 36.152s37.333-13.163 73.855-.319c-.16-10.782-1.16-16.806-1.16-16.806L134.62 7.609s-37 4.123-37.952 4.123c-.952 0-14.046 6.977-14.046 6.977L79.994 24.1l-.809 12.052"/>
        <path fill="#31456A" d="M175.82 124.235c-8.21 5.105-29.394 16.482-56.05 17.302-.958.038-1.916.05-2.861.05-25.04 0-44.507-10.06-52.442-14.918l2.076-1.093.275-3.341c7.575 4.621 27.652 15.104 52.803 14.346 24.268-.745 44.22-10.981 52.63-16.01l.235 2.222 3.335 1.442"/>
        <path fill="#31456A" d="M123.186 193.66L118.024 194.869 118.211 139.135 123.186 139.135 123.186 193.66M143.941 218.979s-2.788-18.931-7.87-27.811c10.164-4.016 26.338-12.517 35.019-7.233 2.117 6.132 3.6 19.45 3.6 19.45L143.94 218.98M71.79 205.077s-9.528-16.701-21.596-17.97c-3.388 8.88-8.257 24.736-8.257 24.736l29.852-6.766"/>
        <path fill="#31456A" d="M32.143 188.58l-.02-.383.018.383h.002l-.02-.383.018.383c.024 0 .253-.01.648-.01 1.363-.002 4.725.117 8.596 1.04 3.878.92 8.227 2.646 11.7 5.715 1.107.976 2.797.871 3.775-.234.977-1.106.872-2.794-.235-3.77-4.39-3.861-9.565-5.848-14-6.906-4.44-1.056-8.18-1.184-9.836-1.186-.549 0-.87.015-.908.016-1.476.074-2.613 1.326-2.54 2.799.072 1.473 1.327 2.61 2.802 2.536M29.683 200.784h.001l.213-.001c.865-.002 4.22.074 8.25 1.034 4.037.954 8.702 2.795 12.334 6.143 1.087.999 2.779.93 3.779-.156 1-1.085.93-2.775-.158-3.773-4.594-4.212-10.118-6.314-14.717-7.41-4.607-1.093-8.336-1.178-9.488-1.18-.217 0-.342.004-.366.004-1.476.043-2.639 1.271-2.597 2.746.042 1.474 1.274 2.636 2.75 2.593"/>
        <path fill="#31456A" d="M28.135 194.319l.027.001c.365.005 4.281.117 8.95 1.1 2.333.49 4.851 1.196 7.193 2.185 2.345.988 4.5 2.26 6.156 3.816 1.078 1.01 2.77.956 3.78-.118 1.011-1.076.958-2.766-.119-3.776-2.347-2.196-5.148-3.772-8-4.952-4.281-1.763-8.708-2.639-12.098-3.102-3.388-.458-5.736-.493-5.815-.494-1.477-.02-2.69 1.158-2.71 2.633-.02 1.475 1.16 2.687 2.636 2.707M33.212 208.919h.012c.196.004 2.421.08 4.791.481 1.183.199 2.4.483 3.372.836.483.176.904.368 1.219.55.316.183.52.357.609.455.993 1.092 2.683 1.174 3.777.182 1.094-.992 1.174-2.682.182-3.774-.59-.644-1.258-1.124-1.947-1.518-1.211-.686-2.516-1.128-3.827-1.471-1.962-.508-3.94-.767-5.456-.912-1.515-.144-2.565-.168-2.612-.17-1.476-.033-2.7 1.137-2.733 2.611-.033 1.475 1.136 2.696 2.613 2.73"/>
        <path fill="#31456A" d="M35.102 213.965c17.369-4.922 34.906-9.113 52.483-13.122 8.798-1.964 17.603-3.898 26.44-5.69 8.828-1.828 17.693-3.497 26.593-5.01-8.686 2.456-17.408 4.757-26.165 6.901-8.75 2.177-17.532 4.215-26.319 6.221-17.595 3.931-35.23 7.682-53.032 10.7M53.035 262.235c14.24-7.891 28.727-15.07 43.296-22.082 7.3-3.468 14.612-6.906 21.987-10.216 7.36-3.338 14.792-6.534 22.3-9.589-7.09 3.925-14.255 7.712-21.491 11.353-7.221 3.674-14.506 7.215-21.804 10.728-14.625 6.95-29.333 13.734-44.288 19.806"/>
        <path fill="#31456A" d="M89.766 244.743c4.229 1.014 8.439 2.046 12.698 2.874 4.238.908 8.496 1.71 12.753 2.491 8.523 1.51 17.082 2.77 25.675 3.677l6.449.638 6.464.426c2.152.188 4.31.255 6.468.306 2.159.028 4.32.192 6.477.16l6.482-.052c2.164.025 4.315-.204 6.478-.284 4.345-.044 8.614-.77 12.966-1.083-8.48 1.904-17.17 3.099-25.9 3.357-8.721.238-17.471-.052-26.146-.998-8.671-.966-17.293-2.344-25.796-4.254-8.502-1.892-16.908-4.245-25.068-7.258"/>
        <path fill="#434F90" d="M176.324 216.359c-2.994-12.851-5.246-25.827-7.315-38.827l-.73-4.915c-.17-1.688-.278-3.348-.306-5.021-.034-3.34.091-6.692.61-10.007.487-3.312 1.341-6.605 2.772-9.665 1.467-3.003 3.59-5.875 6.563-7.41-2.645 2.007-4.391 4.851-5.438 7.882-1.1 3.021-1.664 6.217-1.971 9.428-.272 3.219-.351 6.461-.18 9.696.078 1.613.179 3.24.366 4.821l.775 4.839c1.989 13.001 3.792 26.028 4.854 39.179"/>
        <path fill="#31456A" d="M43.642 330.259L196.916 330.259 196.916 325.291 43.642 325.291z"/>
        <path fill="#31456A" d="M118.117 327.775L123.093 327.775 123.093 252.133 118.117 252.133z"/>
        <path fill="#FADBD0" d="M90.228 64.279h-.014c-1.48-.844-2.798-1.876-3.905-3.068l20.313-23.712h6.543l-22.937 26.78M95.477 66.228c-.908-.173-1.79-.435-2.637-.744l23.982-27.985h3.272L95.477 66.228M130.865 66.501c-.97-.112-1.903-.297-2.81-.546l21.22-24.767c.523.857.808 1.825.834 2.844l-19.244 22.47M124.647 64.627c-.386-.187-.747-.399-1.107-.622l22.141-25.849c.397.163.77.348 1.131.572l-22.165 25.899"/>
        <path fill="#434F90" d="M141.963 37.256v1.258c1.862-.002 3.525.66 4.698 1.683 1.175 1.03 1.85 2.378 1.85 3.85v10.156h1.246l-1.23-.194c-.495 3.193-2.389 6.047-5.201 8.129-2.81 2.078-6.521 3.35-10.516 3.348-3.983.002-7.604-1.29-10.338-3.385-2.735-2.098-4.57-4.978-5.068-8.192-.095-.611-.617-1.063-1.229-1.063h-.498c-.612 0-1.134.452-1.229 1.063-.498 3.214-2.33 6.094-5.065 8.192-2.731 2.096-6.352 3.387-10.341 3.385-3.99.002-7.61-1.29-10.342-3.385-2.734-2.098-4.567-4.978-5.065-8.192l-.004-.02c-.097-.57-.143-1.173-.143-1.781v-8.061c.002-1.472.676-2.82 1.851-3.85 1.173-1.024 2.837-1.685 4.698-1.683h51.926V36H90.037c-2.442.001-4.675.86-6.323 2.294-1.646 1.427-2.715 3.474-2.714 5.753v8.06c0 .736.055 1.478.18 2.21l1.226-.214-1.23.195c.61 3.93 2.84 7.37 6.019 9.806C90.377 66.543 94.52 68 99.042 68c4.52 0 8.664-1.457 11.847-3.896 3.178-2.436 5.408-5.876 6.018-9.806l-1.23-.195v1.256h.498v-1.256l-1.23.195c.61 3.931 2.843 7.37 6.024 9.806C124.15 66.543 128.294 68 132.81 68c4.516-.001 8.726-1.427 11.985-3.833 3.255-2.403 5.577-5.82 6.19-9.77l.015-.194V44.047c.003-2.28-1.069-4.326-2.714-5.753-1.647-1.435-3.88-2.293-6.323-2.294v1.256"/>
    </g>
</svg>
