<svg xmlns="http://www.w3.org/2000/svg" width="32" height="41" viewBox="0 0 32 41">
    <g fill="none">
        <path fill="#80AEF8" d="M15.94 2.739L26.121 2.739 26.121 18.236 15.94 18.236z" transform="rotate(-45 21.03 10.488)"/>
        <path fill="#4175DF" d="M31.52 15.76c0-2.651-2.149-4.8-4.8-4.8h-6.16V4.8c0-2.651-2.149-4.8-4.8-4.8l-8.8 20.48 8.8 20.48h15.76v-25.2z"/>
        <path fill="#4086F4" d="M0 0L15.76 0 15.76 40.96 0 40.96z"/>
        <path fill="#E3E7EA" d="M20.12 32.56L15.76 32.56 14.16 33.76 15.76 34.96 20.12 34.96z"/>
        <path fill="#FFF" d="M6 32.56L15.76 32.56 15.76 34.96 6 34.96z"/>
        <path fill="#E3E7EA" d="M25.52 27.76L15.76 27.76 14.16 28.96 15.76 30.16 25.52 30.16z"/>
        <path fill="#FFF" d="M6 27.76L15.76 27.76 15.76 30.16 6 30.16z"/>
        <path fill="#E3E7EA" d="M25.52 22.96L15.76 22.96 14.16 24.16 15.76 25.36 25.52 25.36z"/>
        <path fill="#FFF" d="M6 22.96L15.76 22.96 15.76 25.36 6 25.36z"/>
        <path fill="#E3E7EA" d="M25.52 18.16L15.76 18.16 14.16 19.36 15.76 20.56 25.52 20.56z"/>
        <path fill="#FFF" d="M6 18.16L15.76 18.16 15.76 20.56 6 20.56z"/>
    </g>
</svg>
