<svg xmlns="http://www.w3.org/2000/svg" width="52" height="42" viewBox="0 0 52 42">
    <g fill="none">
        <g fill="#B5DBFF">
            <path d="M4.5 3h-3C.67 3 0 2.33 0 1.5S.67 0 1.5 0h3C5.33 0 6 .67 6 1.5S5.33 3 4.5 3zM13.6 3h-3.1C9.67 3 9 2.33 9 1.5S9.67 0 10.5 0h3.1c.83 0 1.5.67 1.5 1.5S14.43 3 13.6 3zM22.7 3h-3.1c-.83 0-1.5-.67-1.5-1.5S18.77 0 19.6 0h3.1c.83 0 1.5.67 1.5 1.5S23.53 3 22.7 3zM31.7 3h-3c-.83 0-1.5-.67-1.5-1.5S27.87 0 28.7 0h3c.83 0 1.5.67 1.5 1.5S32.53 3 31.7 3z" transform="translate(9 39)"/>
        </g>
        <circle cx="7.5" cy="6" r="6" fill="#76E2F8"/>
        <path fill="#66C0EE" d="M13.5 6c0-3.31-2.69-6-6-6v12c3.31 0 6-2.69 6-6z"/>
        <path fill="#76E2F8" d="M7.5 12C3.365 12 0 15.365 0 19.5v9c0 .83.67 1.5 1.5 1.5H3v10.5c0 .83.67 1.5 1.5 1.5h6c.83 0 1.5-.67 1.5-1.5V30h1.5c.83 0 1.5-.67 1.5-1.5v-9c0-4.135-3.365-7.5-7.5-7.5z"/>
        <path fill="#66C0EE" d="M12 40.5V30h1.5c.83 0 1.5-.67 1.5-1.5v-9c0-4.135-3.365-7.5-7.5-7.5v30h3c.83 0 1.5-.67 1.5-1.5z"/>
        <g transform="translate(36.2)">
            <circle cx="7.5" cy="6" r="6" fill="#FF6A4D"/>
            <path fill="#E62E2E" d="M13.5 6c0-3.31-2.69-6-6-6v12c3.31 0 6-2.69 6-6z"/>
            <path fill="#FF6A4D" d="M7.5 12C3.365 12 0 15.365 0 19.5v9c0 .83.67 1.5 1.5 1.5H3v10.5c0 .83.67 1.5 1.5 1.5h6c.83 0 1.5-.67 1.5-1.5V30h1.5c.83 0 1.5-.67 1.5-1.5v-9c0-4.135-3.365-7.5-7.5-7.5z"/>
            <path fill="#E62E2E" d="M12 40.5V30h1.5c.83 0 1.5-.67 1.5-1.5v-9c0-4.135-3.365-7.5-7.5-7.5v30h3c.83 0 1.5-.67 1.5-1.5z"/>
        </g>
    </g>
</svg>
