<svg xmlns="http://www.w3.org/2000/svg" width="49" height="44" viewBox="0 0 49 44">
    <g fill="none">
        <path fill="#0B799D" d="M41.106 31.853h-1.42v-2.835h1.42c2.438 0 4.421-1.983 4.421-4.421V7.257c0-2.439-1.983-4.422-4.42-4.422-2.439 0-4.422 1.983-4.422 4.421v1.722H33.85V7.256c0-4 3.255-7.256 7.256-7.256s7.256 3.255 7.256 7.256v17.341c0 4.001-3.255 7.256-7.256 7.256z"/>
        <path fill="#07485E" d="M41.106 31.853h-1.42v-2.835h1.42c2.438 0 4.421-1.983 4.421-4.421V7.257c0-2.439-1.983-4.422-4.42-4.422-2.439 0-4.422 1.983-4.422 4.421v1.722H33.85V7.256c0-4 3.255-7.256 7.256-7.256s7.256 3.255 7.256 7.256v17.341c0 4.001-3.255 7.256-7.256 7.256z"/>
        <path fill="#0B799D" d="M8.675 31.853H7.256c-4 0-7.256-3.255-7.256-7.256V7.257C0 3.254 3.255 0 7.256 0s7.256 3.255 7.256 7.256v1.722h-2.835V7.256c0-2.438-1.983-4.421-4.42-4.421-2.439 0-4.422 1.983-4.422 4.421v17.341c0 2.438 1.983 4.421 4.421 4.421h1.42v2.835z"/>
        <path fill="#E1EBF0" d="M36.587 8.46c-.982-2.503-2.675-4.628-4.898-6.144C29.467.801 26.871 0 24.181 0c-2.69 0-5.286.801-7.508 2.316-2.222 1.516-3.916 3.64-4.898 6.145L6.653 21.52v4.528c0 9.665 7.863 17.528 17.528 17.528S41.71 35.714 41.71 26.049V21.52L36.587 8.46z"/>
        <path fill="#B4D2D7" d="M36.587 8.46c-.982-2.503-2.675-4.628-4.898-6.144C29.467.801 26.871 0 24.181 0v43.577c9.665 0 17.528-7.863 17.528-17.528V21.52L36.587 8.46z"/>
        <circle cx="24.181" cy="27.835" r="8.347" fill="#725D57"/>
        <path fill="#64504B" d="M24.181 19.487v16.695c4.61 0 8.348-3.737 8.348-8.347 0-4.61-3.738-8.348-8.348-8.348z"/>
        <path fill="#64504B" d="M24.181 37.6c-5.384 0-9.765-4.38-9.765-9.765 0-5.385 4.38-9.765 9.765-9.765 5.385 0 9.765 4.38 9.765 9.765 0 5.384-4.38 9.765-9.765 9.765zm0-16.695c-3.821 0-6.93 3.108-6.93 6.93 0 3.82 3.109 6.93 6.93 6.93 3.821 0 6.93-3.11 6.93-6.93 0-3.822-3.109-6.93-6.93-6.93z"/>
        <path fill="#64504B" d="M22.764 29.252L25.599 29.252 25.599 32.087 22.764 32.087zM22.764 23.582L25.599 23.582 25.599 26.417 22.764 26.417zM19.928 26.417L22.764 26.417 22.764 29.252 19.928 29.252zM25.599 26.417L28.434 26.417 28.434 29.252 25.599 29.252z"/>
        <path fill="#FFF5F5" d="M28.31 16.053c-2.778-1.631-5.48-1.631-8.258 0l-1.436-2.445c3.693-2.168 7.437-2.168 11.13 0l-1.435 2.445zM28.025 10.308c-2.587-1.518-5.1-1.518-7.687 0l-1.435-2.445c3.502-2.056 7.054-2.056 10.557 0l-1.435 2.445z"/>
        <path fill="#3E322E" d="M25.599 26.417L28.434 26.417 28.434 29.252 25.599 29.252z"/>
        <path fill="#E1EBF0" d="M29.746 13.608c-1.846-1.084-3.706-1.626-5.565-1.626v2.848c1.37 0 2.74.407 4.13 1.223l1.435-2.445zM29.46 7.863c-1.752-1.028-3.515-1.542-5.279-1.542V9.17c1.275 0 2.55.38 3.844 1.139l1.435-2.445z"/>
        <g fill="#3E322E">
            <path d="M.084.05v2.835c3.82 0 6.93 3.11 6.93 6.93 0 3.822-3.11 6.93-6.93 6.93v2.835c5.384 0 9.765-4.38 9.765-9.765C9.849 4.431 5.469.05.084.05z" transform="translate(24.098 18.02)"/>
            <path d="M.084 11.233L1.501 11.233 1.501 14.068.084 14.068zM.084 5.563L1.501 5.563 1.501 8.398.084 8.398z" transform="translate(24.098 18.02)"/>
        </g>
    </g>
</svg>
