<svg xmlns="http://www.w3.org/2000/svg" width="47" height="46" viewBox="0 0 47 46">
    <g fill="none">
        <path fill="#EB5569" d="M46.067 20.734c.169 2.178-1.363 4.111-3.42 4.318-1.575.157-3-.743-3.658-2.15l-1.866.165-1.41.68c-.322.155-.539.463-.588.817-.134.954-.375 1.872-.71 2.745-.115.296-.095.626.06.902l.502.897 1.396.937c.736-.281 1.593-.214 2.298.259 1.194.801 1.48 2.451.592 3.613-.764 1-2.186 1.275-3.268.632-.69-.409-1.106-1.088-1.208-1.814l-1.547-1.037-.974-.119c-.335-.04-.668.074-.911.307-.822.783-1.75 1.455-2.759 1.993-.34.181-.557.528-.58.911l-.124 1.973.612 2.43c1.042.29 1.904 1.117 2.187 2.241.428 1.7-.627 3.423-2.349 3.807-1.553.346-3.146-.56-3.64-2.072-.383-1.182-.03-2.403.782-3.2l-.616-2.444-.95-1.528c-.254-.41-.705-.652-1.188-.651h-.008c-.832 0-1.646-.083-2.433-.238-.47-.093-.953.055-1.282.402l-1.256 1.325-1.405 2.916c.329.668.358 1.476.01 2.2-.625 1.296-2.221 1.812-3.496 1.095-1.092-.615-1.565-1.973-1.09-3.134.325-.79.997-1.32 1.758-1.496l1.414-2.935.278-1.97c.05-.363-.089-.729-.374-.96-1.125-.912-2.09-2.014-2.843-3.258-.188-.31-.524-.496-.886-.5l-1.966-.018-2.153.677C6.847 30.79 5.93 31.98 4.562 32.41c-1.837.578-3.794-.432-4.39-2.257-.597-1.825.41-3.821 2.234-4.424 1.276-.423 2.617-.072 3.524.79l2.285-.718 1.669-1.19c.248-.176.38-.47.356-.773-.028-.335-.042-.674-.042-1.016 0-1.86.409-3.626 1.14-5.215.106-.233.103-.5-.01-.73l-.494-1.012-1.342-1.013c-.751.241-1.602.126-2.28-.385-1.148-.867-1.342-2.53-.391-3.64.819-.956 2.254-1.152 3.299-.45.665.447 1.044 1.147 1.105 1.877l1.487 1.123 1.499.267c1.09-1.013 2.362-1.834 3.76-2.409l.35-2.138-.443-2.208c-1.314-.338-2.381-1.346-2.669-2.688-.405-1.897.9-3.745 2.913-4.127 2.013-.38 3.974.847 4.38 2.744.303 1.42-.35 2.811-1.543 3.581l.42 2.083 1.03 1.643c.067.108.185.172.311.172h.002c2.358 0 4.567.657 6.452 1.796.104.062.231.07.34.019l1.614-.748 1.883-2.037c-.114-.73.095-1.504.636-2.089.977-1.056 2.651-1.083 3.661-.027.885.928.92 2.406.079 3.375-.544.626-1.325.915-2.087.858l-1.883 2.037-.612 1.645c-.043.114-.024.242.048.34.742 1.02 1.335 2.156 1.744 3.375.113.335.38.595.72.691l1.53.43 1.99-.177c.488-1.406 1.706-2.47 3.202-2.62 2.057-.207 3.861 1.392 4.028 3.57z"/>
        <circle cx="9.313" cy="9.318" r="9.274" fill="#F58A97" transform="translate(13.409 13.504)"/>
        <path fill="#F07281" d="M16.275 22.822c0-4.642 3.41-8.487 7.86-9.167-.46-.07-.932-.107-1.413-.107-5.122 0-9.274 4.152-9.274 9.274 0 5.122 4.152 9.273 9.274 9.273.48 0 .953-.036 1.413-.107-4.45-.68-7.86-4.525-7.86-9.166z"/>
        <g fill="#EB5569" transform="translate(4.47 .666)">
            <circle cx="2.649" cy="2.655" r="2.641"/>
            <circle cx="1.927" cy="37.467" r="1.744"/>
            <circle cx="33.954" cy="40.332" r="2.569"/>
            <circle cx="15.406" cy="19.598" r="2.395"/>
            <circle cx="17.329" cy="27.039" r="1.63"/>
            <circle cx="22.448" cy="22.156" r="1.369"/>
        </g>
    </g>
</svg>
